inDegrees=no
num_controls=7
num_derivatives=13
num_iterations=168
num_multipliers=7
num_parameters=0
num_slacks=7
num_states=26
objective=5.984479
objective_accelerations=0.712148
objective_balance=0.009591
objective_effort=0.509618
objective_height=4.652979
objective_ligament=0.100143
solver_duration=1393.557684
status=Solve_Succeeded
success=true
DataType=double
version=3
OpenSimVersion=4.4-2022-07-23-0e9fedc
endheader
time	/jointset/ground_pelvis/pelvis_tilt/value	/jointset/ground_pelvis/pelvis_tx/value	/jointset/ground_pelvis/pelvis_ty/value	/jointset/hip_r/hip_flexion_r/value	/jointset/hip_r/hip_adduction_r/value	/jointset/hip_r/hip_rotation_r/value	/jointset/back/lumbar_extension/value	/jointset/patellofemoral_r/patellar_flexion_r/value	/jointset/knee_r/knee_flexion_r/value	/jointset/knee_r/knee_adduction_r/value	/jointset/knee_r/knee_rotation_r/value	/jointset/ankle_r/ankle_angle_r/value	/jointset/subtalar_r/subtalar_angle_r/value	/jointset/ground_pelvis/pelvis_tilt/speed	/jointset/ground_pelvis/pelvis_tx/speed	/jointset/ground_pelvis/pelvis_ty/speed	/jointset/hip_r/hip_flexion_r/speed	/jointset/hip_r/hip_adduction_r/speed	/jointset/hip_r/hip_rotation_r/speed	/jointset/back/lumbar_extension/speed	/jointset/patellofemoral_r/patellar_flexion_r/speed	/jointset/knee_r/knee_flexion_r/speed	/jointset/knee_r/knee_adduction_r/speed	/jointset/knee_r/knee_rotation_r/speed	/jointset/ankle_r/ankle_angle_r/speed	/jointset/subtalar_r/subtalar_angle_r/speed	/forceset/tau_hip_flexion_r	/forceset/tau_hip_adduction_r	/forceset/tau_hip_rotation_r	/forceset/tau_knee_flexion_r	/forceset/tau_ankle_angle_r	/forceset/tau_subtalar_angle_r	/forceset/tau_lumbar_extension	lambda_cid13_p0	lambda_cid14_p0	lambda_cid14_p1	lambda_cid14_p2	lambda_cid14_p3	lambda_cid14_p4	lambda_cid14_p5	/jointset/ground_pelvis/pelvis_tilt/accel	/jointset/ground_pelvis/pelvis_tx/accel	/jointset/ground_pelvis/pelvis_ty/accel	/jointset/hip_r/hip_flexion_r/accel	/jointset/hip_r/hip_adduction_r/accel	/jointset/hip_r/hip_rotation_r/accel	/jointset/back/lumbar_extension/accel	/jointset/patellofemoral_r/patellar_flexion_r/accel	/jointset/knee_r/knee_flexion_r/accel	/jointset/knee_r/knee_adduction_r/accel	/jointset/knee_r/knee_rotation_r/accel	/jointset/ankle_r/ankle_angle_r/accel	/jointset/subtalar_r/subtalar_angle_r/accel	gamma_cid13_p0	gamma_cid14_p0	gamma_cid14_p1	gamma_cid14_p2	gamma_cid14_p3	gamma_cid14_p4	gamma_cid14_p5
1	-0.2705971483365314	-0.01987834586060509	0.5989575673926154	1.552050902064483	-0.2476853505093188	0.1469443358693003	-0.7853943455668649	1.613417481741612	1.613417481741507	0.04817244349974061	0.1745299211244539	0.4362074314875048	0.1522427410079748	0.07437318482489128	0.005670797964862761	0.01500565809143861	-0.1039025764484468	-0.002492970457308139	-0.004120525356916325	-2.937128809652991e-05	-0.01226097144661469	-0.01226097144661528	0.001904484923471271	2.717680130017467e-05	0.01729161362047552	0.003622863069408871	-0.3626861436931698	0.005054169952728569	0.05307740511683334	-0.488146526911343	-0.02041099792540223	-0.01491038868336567	0.3751713027736123	-0.03881537463051511	-60.424013368025	-19.2320744477051	5.974350775881322	11.42815022956728	-781.0070106196893	81.42585904861409	1.294560380988161	0.08641422544249296	2.017864895677508	-5.871754324435787	-0.2181296097644741	-1.831519629025406	-0.01269702257097278	-5.408477449920793	-5.408477449920527	0.1351121412881819	0.0119790613277073	-1.104223464717547	-0.8898860825556214	6.729026557594254e-10	1.522531142470972e-10	-3.518295505750658e-09	3.192375368806059e-09	-8.216300589115857e-10	-5.182964244443703e-09	-6.198217302052564e-09
1.01	-0.2697891634117204	-0.0198173274875354	0.5992084132889043	1.550718938166753	-0.2477209740972622	0.1468117831532868	-0.7853947426344047	1.613024551106333	1.613024551106244	0.04819816206880818	0.1745303253119659	0.4363251009236706	0.1522348401529891	0.0872371588364806	0.006534904460828383	0.03516483503765338	-0.1625057821445926	-0.004627768490140907	-0.02238577562175931	-6.716166202746296e-05	-0.06633500414184725	-0.06633500414184899	0.003241515325917834	5.057767027626436e-05	0.00623430785505534	-0.00519928385534159	-0.362141497870978	0.005045469303396982	0.05310286559247678	-0.4884291355731892	-0.02014684974470118	-0.014903850184365	0.3748833855894689	-0.03882371644756311	-60.33186166161219	-19.2163495070765	5.975555814475446	11.39366954780831	-780.8939323356839	81.47661543675933	1.284319519420036	0.08671288061418184	2.015139398671245	-5.856940908794064	-0.2105573790200017	-1.823392288056209	-0.001887962726484575	-5.408343517897326	-5.408343517897853	0.1333423912105935	-0.002941448806083506	-1.107679185132066	-0.87781565782577	2.950930476107847e-10	-6.60009565971782e-10	3.424522783107744e-09	2.002553495415917e-09	-7.613794497395849e-10	-8.843358597050342e-09	-2.527125997925522e-09
1.02	-0.2688521380251417	-0.01974760724571843	0.5996608900155722	1.548800474768725	-0.2477778261613324	0.1464967050220731	-0.7853960311883406	1.612090584676388	1.612090584676327	0.04823731972229892	0.1745308710982485	0.436331958291344	0.1521388304966776	0.1001812771750783	0.007411171714319012	0.05533182416701951	-0.2212024765043648	-0.006738665682079672	-0.04062560840028871	-0.0002076687528182831	-0.1204681303799861	-0.1204681303799907	0.004592301787860386	5.549659970248018e-05	-0.004870800017475203	-0.01399889719572556	-0.3615968520489224	0.005036768654094692	0.05312832606777658	-0.4887117442350486	-0.01988270156395931	-0.01489731168528247	0.3745954684052032	-0.03883703287246541	-60.24598751889039	-19.19976592896833	5.974387808250592	11.37372988064587	-780.9030964194617	81.51419982047477	1.310589246389988	0.08884637694725614	2.019427332307766	-5.890452057160851	-0.2133494415854027	-1.826436131762518	-0.03324036593856209	-5.420296158502196	-5.420296158502272	0.1378633531872515	0.0082826734171674	-1.113783886140062	-0.8853793656820309	-6.592377295249925e-10	-1.121446105504075e-09	9.064347412945118e-09	4.210160203047723e-10	-1.690680566326393e-09	-1.086687276175007e-08	-4.148117540854089e-09
1.03	-0.2677856008945214	-0.01966897145589919	0.600314930963083	1.54629509583832	-0.2478556407703651	0.1459994322192292	-0.7853981121136001	1.610615229507141	1.61061522950718	0.04829000152219878	0.1745314035615757	0.4362275957575368	0.1519550489726829	0.1131062149635737	0.008327284316291039	0.07546325755221067	-0.2798370770309706	-0.008817621380422514	-0.05881581507826725	-0.0001126085125220409	-0.174589072356049	-0.1745890723560363	0.005942497818111156	5.077261080233983e-05	-0.01600250964726921	-0.02274257148075921	-0.36142240759048	0.005052209310309144	0.05312726686345529	-0.488429563196482	-0.01988864333326138	-0.01484686440225869	0.3747703265284689	-0.03885609715481319	-60.22896722109493	-19.16459282500189	5.957033712341676	11.25099456820278	-780.8329749718672	81.48990408451591	1.280455517189568	0.0946878800665855	2.008032587307977	-5.844529816849657	-0.2041726068376548	-1.813345899140836	0.04526537963936685	-5.405918220573101	-5.405918220570713	0.1333671781238124	-0.004883388234201416	-1.112985681875618	-0.8666338084216897	-1.61945137573207e-09	-1.579302786457932e-09	1.4690876189119e-08	-1.16451855278312e-09	-2.630079149502582e-09	-1.287368406738951e-08	-5.823109929160805e-09
